<?xml version="1.0" standalone="no"?>
<!DOCTYPE svg PUBLIC "-//W3C//DTD SVG 20010904//EN"
 "http://www.w3.org/TR/2001/REC-SVG-20010904/DTD/svg10.dtd">
<svg version="1.0" xmlns="http://www.w3.org/2000/svg"
 width="900.000000pt" height="520.000000pt" viewBox="0 0 900.000000 520.000000"
 preserveAspectRatio="xMidYMid meet">
<metadata>
Created by potrace 1.16, written by Peter Selinger 2001-2019
</metadata>
<g transform="translate(0.000000,520.000000) scale(0.100000,-0.100000)"
fill="#000000" stroke="none">
<path d="M4300 4974 c-14 -2 -65 -9 -115 -15 -184 -22 -423 -90 -617 -175
-306 -134 -584 -341 -806 -599 -601 -701 -728 -1683 -323 -2510 386 -788 1184
-1285 2062 -1285 984 0 1864 632 2173 1560 85 255 119 465 119 740 0 367 -70
669 -233 1005 -286 589 -827 1038 -1451 1204 -211 56 -334 73 -569 76 -118 2
-226 2 -240 -1z m1005 -1357 c280 -98 490 -352 551 -665 20 -104 18 -278 -5
-387 -36 -173 -121 -333 -240 -453 -76 -76 -128 -112 -224 -157 -110 -52 -176
-66 -338 -72 l-147 -6 -6 -251 c-8 -301 -13 -354 -31 -335 -7 8 -101 143 -209
301 l-196 286 -388 4 c-363 4 -392 6 -460 27 -136 40 -250 110 -348 212 -155
163 -237 356 -251 586 -22 373 154 705 459 863 157 82 124 79 988 77 l765 -2
80 -28z"/>
<path d="M3860 2882 c-95 -47 -116 -184 -40 -261 79 -79 214 -59 265 40 24 45
19 128 -9 170 -45 66 -142 89 -216 51z"/>
<path d="M4361 2883 c-97 -48 -113 -192 -29 -270 50 -47 117 -55 184 -22 82
39 114 137 72 219 -31 61 -77 90 -142 90 -28 0 -66 -8 -85 -17z"/>
<path d="M4860 2878 c-45 -31 -69 -66 -76 -110 -15 -89 30 -165 110 -188 119
-33 225 53 213 173 -8 87 -74 147 -162 147 -38 0 -61 -6 -85 -22z"/>
</g>
</svg>
